<svg width="148" height="20" viewBox="0 0 148 20" fill="none" xmlns="http://www.w3.org/2000/svg">
<path d="M8.59766 5.48828C8.84766 5.48828 9.10938 5.50781 9.38281 5.54688C9.65625 5.57812 9.85938 5.60547 9.99219 5.62891L9.58203 9.95312C9.43359 9.91406 9.24219 9.88281 9.00781 9.85938C8.77344 9.82812 8.44531 9.8125 8.02344 9.8125C7.73438 9.8125 7.42578 9.83984 7.09766 9.89453C6.76953 9.94922 6.45703 10.0664 6.16016 10.2461C5.87109 10.418 5.63281 10.6836 5.44531 11.043C5.25781 11.3945 5.16406 11.8711 5.16406 12.4727V19H0.582031V5.72266H3.99219L4.70703 7.84375H4.92969C5.17188 7.40625 5.48047 7.01172 5.85547 6.66016C6.23828 6.30078 6.66406 6.01562 7.13281 5.80469C7.60938 5.59375 8.09766 5.48828 8.59766 5.48828ZM18.3359 5.48828C20.0156 5.48828 21.3281 5.90625 22.2734 6.74219C23.2188 7.57031 23.6914 8.75391 23.6914 10.293V19H20.5156L19.6367 17.2422H19.543C19.168 17.7109 18.7812 18.0938 18.3828 18.3906C17.9922 18.6797 17.543 18.8906 17.0352 19.0234C16.5273 19.1641 15.9062 19.2344 15.1719 19.2344C14.4062 19.2344 13.7188 19.0781 13.1094 18.7656C12.5 18.4531 12.0195 17.9805 11.668 17.3477C11.3164 16.7148 11.1406 15.9141 11.1406 14.9453C11.1406 13.5234 11.6328 12.4688 12.6172 11.7812C13.6016 11.0938 15.0273 10.707 16.8945 10.6211L19.1094 10.5508V10.3633C19.1094 9.76953 18.9609 9.34766 18.6641 9.09766C18.375 8.84766 17.9844 8.72266 17.4922 8.72266C16.9688 8.72266 16.3828 8.81641 15.7344 9.00391C15.0938 9.18359 14.4492 9.41797 13.8008 9.70703L12.4766 6.68359C13.2422 6.29297 14.1094 5.99609 15.0781 5.79297C16.0469 5.58984 17.1328 5.48828 18.3359 5.48828ZM19.1328 13.0703L18.0781 13.1172C17.2344 13.1484 16.6406 13.2969 16.2969 13.5625C15.9609 13.8203 15.793 14.1914 15.793 14.6758C15.793 15.1289 15.9141 15.4648 16.1562 15.6836C16.3984 15.8945 16.7188 16 17.1172 16C17.6719 16 18.1445 15.8242 18.5352 15.4727C18.9336 15.1211 19.1328 14.6641 19.1328 14.1016V13.0703ZM35.1172 5.48828C36.4844 5.48828 37.6016 5.875 38.4688 6.64844C39.3359 7.42188 39.7695 8.66016 39.7695 10.3633V19H35.1875V11.7578C35.1875 10.875 35.0586 10.2109 34.8008 9.76562C34.5508 9.3125 34.1445 9.08594 33.582 9.08594C32.7148 9.08594 32.1328 9.44141 31.8359 10.1523C31.5391 10.8555 31.3906 11.8672 31.3906 13.1875V19H26.8086V5.72266H30.2656L30.8867 7.48047H31.0625C31.3438 7.05859 31.6797 6.69922 32.0703 6.40234C32.4609 6.10547 32.9102 5.87891 33.418 5.72266C33.9258 5.56641 34.4922 5.48828 35.1172 5.48828ZM47.0117 19.2344C45.6445 19.2344 44.5195 18.6523 43.6367 17.4883C42.7539 16.3242 42.3125 14.6211 42.3125 12.3789C42.3125 10.1133 42.7656 8.39844 43.6719 7.23438C44.5781 6.07031 45.75 5.48828 47.1875 5.48828C47.7812 5.48828 48.293 5.57422 48.7227 5.74609C49.1523 5.91797 49.5234 6.15234 49.8359 6.44922C50.1562 6.73828 50.4336 7.06641 50.668 7.43359H50.7617C50.707 7.09766 50.6562 6.63672 50.6094 6.05078C50.5625 5.45703 50.5391 4.87891 50.5391 4.31641V0.765625H55.1562V19H51.6992L50.7148 17.3242H50.5391C50.3281 17.6758 50.0625 17.9961 49.7422 18.2852C49.4297 18.5742 49.0469 18.8047 48.5938 18.9766C48.1484 19.1484 47.6211 19.2344 47.0117 19.2344ZM48.8867 15.6133C49.6211 15.6133 50.1367 15.3828 50.4336 14.9219C50.7383 14.4531 50.9023 13.7422 50.9258 12.7891V12.4258C50.9258 11.3789 50.7773 10.5781 50.4805 10.0234C50.1914 9.46094 49.6445 9.17969 48.8398 9.17969C48.293 9.17969 47.8398 9.44531 47.4805 9.97656C47.1211 10.5078 46.9414 11.332 46.9414 12.4492C46.9414 13.5508 47.1211 14.3555 47.4805 14.8633C47.8477 15.3633 48.3164 15.6133 48.8867 15.6133ZM71.0117 12.332C71.0117 13.4414 70.8594 14.4258 70.5547 15.2852C70.25 16.1445 69.8086 16.8672 69.2305 17.4531C68.6523 18.0391 67.9531 18.4844 67.1328 18.7891C66.3125 19.0859 65.3867 19.2344 64.3555 19.2344C63.3945 19.2344 62.5117 19.0859 61.707 18.7891C60.9102 18.4844 60.2148 18.0391 59.6211 17.4531C59.0273 16.8672 58.5664 16.1445 58.2383 15.2852C57.918 14.4258 57.7578 13.4414 57.7578 12.332C57.7578 10.8633 58.0234 9.62109 58.5547 8.60547C59.0938 7.58984 59.8594 6.81641 60.8516 6.28516C61.8516 5.75391 63.043 5.48828 64.4258 5.48828C65.6992 5.48828 66.832 5.75391 67.8242 6.28516C68.8164 6.81641 69.5938 7.58984 70.1562 8.60547C70.7266 9.62109 71.0117 10.8633 71.0117 12.332ZM62.4102 12.332C62.4102 13.0898 62.4766 13.7305 62.6094 14.2539C62.7422 14.7695 62.9531 15.1641 63.2422 15.4375C63.5391 15.7031 63.9258 15.8359 64.4023 15.8359C64.8789 15.8359 65.2578 15.7031 65.5391 15.4375C65.8203 15.1641 66.0234 14.7695 66.1484 14.2539C66.2812 13.7305 66.3477 13.0898 66.3477 12.332C66.3477 11.5742 66.2812 10.9414 66.1484 10.4336C66.0234 9.92578 65.8164 9.54297 65.5273 9.28516C65.2461 9.02734 64.8633 8.89844 64.3789 8.89844C63.6836 8.89844 63.1797 9.1875 62.8672 9.76562C62.5625 10.3438 62.4102 11.1992 62.4102 12.332ZM110.316 12.332C110.316 13.4414 110.164 14.4258 109.859 15.2852C109.555 16.1445 109.113 16.8672 108.535 17.4531C107.957 18.0391 107.258 18.4844 106.438 18.7891C105.617 19.0859 104.691 19.2344 103.66 19.2344C102.699 19.2344 101.816 19.0859 101.012 18.7891C100.215 18.4844 99.5195 18.0391 98.9258 17.4531C98.332 16.8672 97.8711 16.1445 97.543 15.2852C97.2227 14.4258 97.0625 13.4414 97.0625 12.332C97.0625 10.8633 97.3281 9.62109 97.8594 8.60547C98.3984 7.58984 99.1641 6.81641 100.156 6.28516C101.156 5.75391 102.348 5.48828 103.73 5.48828C105.004 5.48828 106.137 5.75391 107.129 6.28516C108.121 6.81641 108.898 7.58984 109.461 8.60547C110.031 9.62109 110.316 10.8633 110.316 12.332ZM101.715 12.332C101.715 13.0898 101.781 13.7305 101.914 14.2539C102.047 14.7695 102.258 15.1641 102.547 15.4375C102.844 15.7031 103.23 15.8359 103.707 15.8359C104.184 15.8359 104.562 15.7031 104.844 15.4375C105.125 15.1641 105.328 14.7695 105.453 14.2539C105.586 13.7305 105.652 13.0898 105.652 12.332C105.652 11.5742 105.586 10.9414 105.453 10.4336C105.328 9.92578 105.121 9.54297 104.832 9.28516C104.551 9.02734 104.168 8.89844 103.684 8.89844C102.988 8.89844 102.484 9.1875 102.172 9.76562C101.867 10.3438 101.715 11.1992 101.715 12.332ZM116.422 19L111.359 5.72266H116.141L118.391 13.5742C118.414 13.6445 118.453 13.8242 118.508 14.1133C118.57 14.4023 118.602 14.6719 118.602 14.9219H118.684C118.684 14.6562 118.711 14.4023 118.766 14.1602C118.82 13.918 118.863 13.7305 118.895 13.5977L121.25 5.72266H126.02L120.957 19H116.422ZM132.219 5.72266V19H127.637V5.72266H132.219ZM129.945 0.378906C130.602 0.378906 131.172 0.515625 131.656 0.789062C132.148 1.0625 132.395 1.60547 132.395 2.41797C132.395 3.20703 132.148 3.74219 131.656 4.02344C131.172 4.29688 130.602 4.43359 129.945 4.43359C129.273 4.43359 128.699 4.29688 128.223 4.02344C127.754 3.74219 127.52 3.20703 127.52 2.41797C127.52 1.60547 127.754 1.0625 128.223 0.789062C128.699 0.515625 129.273 0.378906 129.945 0.378906ZM141.395 5.48828C142.684 5.48828 143.797 5.71484 144.734 6.16797C145.672 6.61328 146.395 7.28516 146.902 8.18359C147.41 9.08203 147.664 10.207 147.664 11.5586V13.5977H139.473C139.512 14.293 139.77 14.8633 140.246 15.3086C140.73 15.7539 141.441 15.9766 142.379 15.9766C143.207 15.9766 143.965 15.8945 144.652 15.7305C145.348 15.5664 146.062 15.3125 146.797 14.9688V18.2617C146.156 18.5977 145.457 18.8438 144.699 19C143.941 19.1562 142.984 19.2344 141.828 19.2344C140.492 19.2344 139.297 18.9961 138.242 18.5195C137.188 18.043 136.355 17.3047 135.746 16.3047C135.145 15.3047 134.844 14.0195 134.844 12.4492C134.844 10.8555 135.117 9.54688 135.664 8.52344C136.211 7.49219 136.977 6.73047 137.961 6.23828C138.945 5.73828 140.09 5.48828 141.395 5.48828ZM141.559 8.60547C141.02 8.60547 140.566 8.77734 140.199 9.12109C139.84 9.45703 139.629 9.98828 139.566 10.7148H143.504C143.496 10.3242 143.418 9.96875 143.27 9.64844C143.121 9.32812 142.902 9.07422 142.613 8.88672C142.332 8.69922 141.98 8.60547 141.559 8.60547Z" fill="white"/>
<path d="M89.8438 5.48828C91.3594 5.48828 92.5156 5.875 93.3125 6.64844C94.1172 7.42188 94.5195 8.66016 94.5195 10.3633V19H89.9375V11.7812C89.9375 10.7734 89.8008 10.0742 89.5273 9.68359C89.2617 9.28516 88.8633 9.08594 88.332 9.08594C87.5898 9.08594 87.0742 9.41016 86.7852 10.0586C86.5039 10.707 86.3633 11.625 86.3633 12.8125V19H81.7695V11.7812C81.7695 11.1406 81.7109 10.625 81.5938 10.2344C81.4844 9.83594 81.3164 9.54688 81.0898 9.36719C80.8633 9.17969 80.5781 9.08594 80.2344 9.08594C79.7109 9.08594 79.3008 9.24609 79.0039 9.56641C78.7148 9.87891 78.5117 10.3398 78.3945 10.9492C78.2773 11.5586 78.2188 12.3047 78.2188 13.1875V19H73.6367V5.72266H77.0938L77.7617 7.36328H77.8906C78.125 7.00391 78.4258 6.68359 78.793 6.40234C79.168 6.12109 79.6094 5.89844 80.1172 5.73438C80.6328 5.57031 81.2188 5.48828 81.875 5.48828C82.8516 5.48828 83.6562 5.65234 84.2891 5.98047C84.9219 6.30859 85.4375 6.76172 85.8359 7.33984H85.9766C86.3984 6.74609 86.9414 6.28906 87.6055 5.96875C88.2695 5.64844 89.0156 5.48828 89.8438 5.48828Z" fill="#20A972"/>
</svg>
